<svg xmlns="http://www.w3.org/2000/svg" xmlns:xlink="http://www.w3.org/1999/xlink" viewBox="145 178 580 450" style="fill: rgb(0, 0, 0);" original_string_length="8433" width="374.9389330424919px" height="374.9389330424919px"><g><g><g style="isolation:isolate"><g style="isolation: isolate; fill: rgb(46, 49, 146);"><path d="M169.69,645.71h26.32l-1.26,6.5h-19.33l-1.53,7.97h16.17l-1.26,6.23h-16.16l-1.64,8.57h19.33l-1.26,6.44h-26.32l6.94-35.72Z" style="fill: inherit;"/><path d="M196.78,668.98c0-.82.11-1.86.33-3l4.53-23.32h6.55l-2.89,14.85c2.24-2.4,5.24-3.77,8.74-3.77,6.01,0,12.12,4.1,12.12,12.4s-6.66,16-16.11,16c-7.48,0-13.27-5.08-13.27-13.16ZM219.44,666.9c0-4.42-2.84-7.1-7.21-7.1-5.57,0-8.96,4.26-8.96,9.07,0,4.42,2.89,7.21,7.26,7.21,5.41,0,8.9-4.31,8.9-9.17Z" style="fill: inherit;"/><path d="M258.22,666.19c0,1.04-.11,2.08-.33,3.11l-.16.93h-22.23c.44,3.93,3.28,6.01,7.65,6.01,2.68,0,4.75-.76,6.23-2.57h7.04c-2.57,5.19-7.7,8.46-14.09,8.46-7.86,0-13.54-5.02-13.54-12.83,0-8.57,6.88-15.56,15.95-15.56,7.48,0,13.49,4.81,13.49,12.45ZM236.21,665.05h15.29c-.66-3.55-3.6-5.41-7.32-5.41-3.99,0-6.72,2.29-7.97,5.41Z" style="fill: inherit;"/><path d="M282.24,667.94c.16-.82.22-1.86.22-2.24,0-3.99-2.51-5.9-6.12-5.9s-6.39,2.08-7.32,6.83l-2.89,14.8h-6.55l3-15.4c1.58-8.14,6.88-12.29,14.14-12.29s12.4,3.88,12.4,11.2c0,1.2-.16,2.57-.38,3.66l-2.51,12.83h-6.61l2.62-13.49Z" style="fill: inherit;"/><path d="M322.33,666.19c0,1.04-.11,2.08-.33,3.11l-.16.93h-22.23c.44,3.93,3.28,6.01,7.65,6.01,2.68,0,4.75-.76,6.23-2.57h7.04c-2.57,5.19-7.7,8.46-14.09,8.46-7.86,0-13.54-5.02-13.54-12.83,0-8.57,6.88-15.56,15.95-15.56,7.48,0,13.49,4.81,13.49,12.45ZM300.32,665.05h15.29c-.66-3.55-3.6-5.41-7.32-5.41-3.99,0-6.72,2.29-7.97,5.41Z" style="fill: inherit;"/><path d="M323.53,676.13l18.19-16.06h-14.31l1.15-5.62h23.48l-1.04,5.3-18.19,16.06h15.67l-1.15,5.62h-24.85l1.04-5.3Z" style="fill: inherit;"/><path d="M382.51,666.19c0,1.04-.11,2.08-.33,3.11l-.16.93h-22.23c.44,3.93,3.28,6.01,7.65,6.01,2.68,0,4.75-.76,6.23-2.57h7.04c-2.57,5.19-7.7,8.46-14.09,8.46-7.86,0-13.54-5.02-13.54-12.83,0-8.57,6.88-15.56,15.95-15.56,7.48,0,13.49,4.81,13.49,12.45ZM360.5,665.05h15.29c-.66-3.55-3.6-5.41-7.32-5.41-3.99,0-6.72,2.29-7.97,5.41Z" style="fill: inherit;"/><path d="M387.15,664.55c1.42-7.32,6.12-10.81,12.23-10.81,6.66,0,11.41,3.28,11.41,9.88,0,.82-.11,1.8-.16,2.4h-6.55c.11-.55.16-1.09.16-1.64,0-3.28-2.08-4.59-5.19-4.59-2.57,0-4.7,1.47-5.46,5.41l-3.17,16.22h-6.55l3.28-16.88Z" style="fill: inherit;"/><path d="M440.67,652.21h-10.65l1.26-6.5h28.29l-1.26,6.5h-10.65l-5.68,29.22h-6.99l5.68-29.22Z" style="fill: inherit;"/><path d="M484.14,666.19c0,1.04-.11,2.08-.33,3.11l-.16.93h-22.23c.44,3.93,3.28,6.01,7.65,6.01,2.68,0,4.75-.76,6.23-2.57h7.04c-2.57,5.19-7.7,8.46-14.09,8.46-7.86,0-13.54-5.02-13.54-12.83,0-8.57,6.88-15.56,15.95-15.56,7.48,0,13.49,4.81,13.49,12.45ZM462.13,665.05h15.29c-.66-3.55-3.6-5.41-7.32-5.41-3.99,0-6.72,2.29-7.97,5.41Z" style="fill: inherit;"/><path d="M493.96,642.66h6.5l-7.54,38.77h-6.5l7.54-38.77Z" style="fill: inherit;"/><path d="M529.95,666.19c0,1.04-.11,2.08-.33,3.11l-.16.93h-22.23c.44,3.93,3.28,6.01,7.65,6.01,2.68,0,4.75-.76,6.23-2.57h7.04c-2.57,5.19-7.7,8.46-14.09,8.46-7.86,0-13.54-5.02-13.54-12.83,0-8.57,6.88-15.56,15.95-15.56,7.48,0,13.49,4.81,13.49,12.45ZM507.94,665.05h15.29c-.66-3.55-3.6-5.41-7.32-5.41-3.99,0-6.72,2.29-7.97,5.41Z" style="fill: inherit;"/><path d="M539.73,642.66h6.55l-2.84,14.85c2.13-2.4,4.75-3.77,7.7-3.77,6.28,0,10.7,4.37,10.7,10.98,0,1.37-.16,2.62-.38,3.77l-2.51,12.94h-6.61l2.62-13.43c.16-.82.22-1.53.22-2.24,0-3.88-2.51-5.95-6.28-5.95-3.33,0-6.33,2.13-7.26,6.88l-2.89,14.75h-6.55l7.54-38.77Z" style="fill: inherit;"/><path d="M594.94,666.19c0,1.04-.11,2.08-.33,3.11l-.16.93h-22.23c.44,3.93,3.28,6.01,7.65,6.01,2.68,0,4.75-.76,6.23-2.57h7.04c-2.57,5.19-7.7,8.46-14.09,8.46-7.86,0-13.54-5.02-13.54-12.83,0-8.57,6.88-15.56,15.95-15.56,7.48,0,13.49,4.81,13.49,12.45ZM572.93,665.05h15.29c-.66-3.55-3.6-5.41-7.32-5.41-3.99,0-6.72,2.29-7.97,5.41Z" style="fill: inherit;"/><path d="M619.18,677.01c-2.13,3.39-5.62,5.13-9.5,5.13-6.06,0-12.23-4.21-12.23-12.45s6.83-15.95,16.17-15.95c7.54,0,13.38,4.75,13.38,12.56,0,1.09-.11,2.13-.33,3.28l-2.35,11.85h-6.01l.87-4.42ZM620.38,666.85c0-4.31-2.79-7.04-7.15-7.04-5.3,0-9.01,3.99-9.01,9.01,0,4.31,2.79,7.26,7.26,7.26,5.46,0,8.9-4.42,8.9-9.23Z" style="fill: inherit;"/><path d="M637.97,642.66h6.5l-7.54,38.77h-6.5l7.54-38.77Z" style="fill: inherit;"/><path d="M651.79,670.67c-.11.55-.16,1.09-.16,1.47,0,2.79,1.86,3.93,4.21,3.93,2.51,0,4.26-1.26,4.92-4.53l.22-1.2h6.55l-.33,1.86c-1.37,6.83-5.62,9.94-11.69,9.94s-10.43-3.17-10.43-9.12c0-.76.05-1.8.27-2.95l4.92-25.18h6.55l-1.86,9.56h13.87l-1.15,5.9h-13.87l-2.02,10.32Z" style="fill: inherit;"/><path d="M677.83,642.66h6.55l-2.84,14.85c2.13-2.4,4.75-3.77,7.7-3.77,6.28,0,10.7,4.37,10.7,10.98,0,1.37-.16,2.62-.38,3.77l-2.51,12.94h-6.61l2.62-13.43c.16-.82.22-1.53.22-2.24,0-3.88-2.51-5.95-6.28-5.95-3.33,0-6.33,2.13-7.26,6.88l-2.89,14.75h-6.55l7.54-38.77Z" style="fill: inherit;"/></g></g><g><g style="fill: rgb(0, 153, 142);"><path d="M551.95,466c-32.13-4.78-64.47.9-95.37,9.04-2.29.6-4.33.98-6.75,1.08l49.29-46.42,79.91-75.68-156.22-.05,7.21-51.02,247.37.03-7.47,47.29-59.12,57.77-58.83,57.98-.02-.02Z" style="fill: inherit;"/><path d="M629.37,598.23l-294.28-.04,53.41-33.67,51.76-32.72c11.13-6.37,21.73-12.12,33.43-17.29,15.1-6.25,29.97-11.34,46.66-13.65l-48.43,48.17,134.4.04c-.84,19.21,7.21,36.55,23.04,49.16h.01Z" style="fill: inherit;"/><path d="M260.54,407.75c-8.65,1.85-17.48,2.52-26.35.9-7.41-.9-14.09-3.38-20.14-7.65-1.36-1.25-2.64-3-2.44-5.18l8.64-93.25,192.27.09-7.66,51.35-134.09.4-10.24,53.35h0Z" style="fill: inherit;"/><path d="M363.39,478.39l-108.37-.02,1.64-14.68c16.36-4.4,31.88-9.67,47.03-17.21,13.73-6.79,25.81-15.23,36.4-26.34l74.11.13c-4.37,18.07-13.21,33.24-25.88,45.21-7.33,6.49-14.81,11.28-24.93,12.91h0Z" style="fill: inherit;"/><path d="M214.17,455.39c1.76,9.62,2.39,18.93,1.48,28.82-2.71,29.6-14.07,56.05-32.74,80.28-5.58,7.68-5.36,18.6,8.4,24.07,18.11,7.19,42.67,2.55,60.85-3.74,17.26-5.97,33.28-13.79,48.72-23.43l12.92-8.07-84.57-.14c9.63-31.26,16.23-62.58,18.63-94.85.8-.16-5.98.54-10.4.54-9.2,0-23.97-3.73-23.3-3.46v-.02Z" style="fill: inherit;"/></g><g style="fill: rgb(46, 49, 146);"><path d="M633.76,509.74c-5.46,4.31-10.08,8.29-14.72,14.28-10.9-9.91-23.39-16.91-37.32-22.11-27.28-10.19-56.2-11.5-84.52-4.44-21.47,5.35-41.83,12.96-60.96,24.13l-47.06,27.46-48.93,28.79c-32.31,19.01-76.72,37.69-114.29,41.25-22.97,2.18-48.85-1.54-65.9-17.99-18.12-17.48-19-41.53-9.01-63.63,10-22.14,28.27-40.63,46.57-56.18l9.09-7.73c.9,7.17,1.2,14.29.14,21.66-1.15,8.02-31.36,28.35-39.67,59.68-3.47,13.08.77,26.07,11.68,34.19,23.63,17.59,61.09,9.56,86.34-.96,11.8-4.92,22.76-9.96,33.55-16.68l32.06-19.98,58.12-35.79c40.82-25.13,101.36-44.53,150.2-42.03,32.81,1.68,68.48,14.08,94.64,36.07h-.01ZM414.79,519.42c20.2-11.68,40.65-20.66,62.6-27.59,18.64-5.89,37.31-9.14,56.89-9.32,19.61-.18,37.55,3.73,56.29,9.48-29.13-13.52-62.06-16.35-93.63-10.36-34.64,6.58-66.94,19.54-97.23,37.39-19.05,11.23-37.3,22.61-55.43,35.18l-25.52,17.7c17.83-7.4,33.36-16.22,49.45-25.52l46.59-26.96h-.01Z" style="fill: inherit;"/><path d="M719.33,552.96c0,28.6-23.18,51.78-51.78,51.78s-51.78-23.18-51.78-51.78,23.18-51.78,51.78-51.78,51.78,23.18,51.78,51.78h0ZM678.67,582.5c16.94-5.35,27.98-21.42,25.69-38.89-1.56-11.92-9.71-21.55-20.01-27.13-14.02-7.59-30.58-5.91-42.67,4.41-11.4,9.73-14.83,25.09-9.59,39.16,6.95,18.62,27.04,28.63,46.58,22.46h0ZM711.2,552.09c-2.65,18.72-14.98,32.73-33.02,37.03-26.52,6.32-50.98-10.98-54.28-38-.88,13.19,5.97,24.81,15.67,33.1,13.21,11.28,31.3,14.19,47.57,6.43,13.81-6.58,25.21-21.94,24.06-38.56h0Z" style="fill: inherit;"/><path d="M215.37,200.87c-27.51,24.65-26.88,76-28.66,110.43l-16.46-.04c.95-18.82,2.32-37.16,5.17-55.72,3.99-25.9,13.67-49.83,34.63-66.2,6.76-5.28,14.37-8.62,22.65-10.45,1.21-2.07,3.02-4.2,5.41-4.86l18.41-5.09c6.59-1.82,12.62,2.4,14.55,8.62s.97,13-4.06,17.34c-6.5,5.61-16.24,5.38-22.72-.11-2.4-.21-5.24-.25-7.22-.78-5.74-4.92-17.36,2.92-21.73,6.84l.03.02Z" style="fill: inherit;"/><path d="M366.27,294.26l-14.64-.04c3.84-27.7,11.41-60.23-2.53-85.62-5.62-10.23-14.69-17.78-26.53-19.22-4.46,11.98-22.94,9.9-30.59,5.9-6.93-3.63-8.68-12.29-6.07-19.22,2.08-5.53,7.1-8.33,12.97-7.08l15.46,3.29c3.34.71,5.69,2.28,8.22,4.65l8.19,1.89c15.71,3.62,27.1,16.17,33.49,30.93,9.02,20.84,7.35,44.23,4.43,66.43l-2.38,18.09h-.02Z" style="fill: inherit;"/><circle cx="666.98" cy="548.26" r="27.46" style="fill: inherit;"/><path d="M353.27,368.06c-1.04-3.62-3.48-5.98-6.68-6.2-9.28-.64-7.04,9.04-16.35,20.71-6.54,8.2-14.01,14.74-22.93,20.38-6.18,3.91-12.62,7.29-19.26,10.1-12.56,5.32-25.9,8.56-39.8,9.19-19.75.9-37.69-5.13-48.54-21.35-.87-1.3-1.7-2.66-2.48-4.1-9.08-16.77-8.78-36.22-7.74-54.99l.9-16.24c.5-8.99-13.56-7.87-18.92-7.15-4.24.57-5.62,4.25-5.9,7.82-1.07,13.88-2,27.18-1.66,40.98.77,31.02,10.9,58.59,35.46,75.26,4.29,2.91,9.03,5.49,14.23,7.69,7.45,2.72,16.07,4.29,25.27,4.29,4.42,0,8.71-.36,12.8-1.04,2.79-.59,5.55-1.22,8.28-1.88,26.11-6.34,49.55-16.22,69.29-34.05,11.19-10.07,28.28-34.63,24.02-49.43h0Z" style="fill: inherit;"/></g></g></g></g></svg>